# xmcd
#
# Track frame offsets: 
#        150
#        16854
#        38014
#        62827
#        93733
#        120317
#        141175
#        172920
#        195178
#        213892
#
# Disc length: 3121 seconds
#
# Revision: 0
# Processed by: cddbd v1.5PL3 Copyright (c) Steve Scherf et al.
# Submitted via: ExactAudioCopy v0.95a4
#
DISCID=790c2f0a
DTITLE=Eric Bell Band - A Blues Night in Dublin
DYEAR=2002
DGENRE=Blues
TTITLE0=The Stumble
TTITLE1=Pretty Woman
TTITLE2=Things We Used To Do
TTITLE3=Baby Please Don't Go
TTITLE4=Walk On Water
TTITLE5=Standing In The Middle
TTITLE6=You Were The One
TTITLE7=Shake Your Money Maker
TTITLE8=Too Tired
TTITLE9=Further On Up The Road
EXTD=
EXTT0=
EXTT1=
EXTT2=
EXTT3=
EXTT4=
EXTT5=
EXTT6=
EXTT7=
EXTT8=
EXTT9=
PLAYORDER=
